<svg width="21" height="20" viewBox="0 0 21 20" fill="none" xmlns="http://www.w3.org/2000/svg">
<path d="M9.63212 1.12573C9.90472 0.291423 11.0953 0.291424 11.3679 1.12573L12.8784 5.74884C13.1351 6.53454 13.8702 7.064 14.6968 7.064H19.585C20.4745 7.064 20.8308 8.18748 20.1223 8.69936L16.1677 11.5566C15.4973 12.041 15.2153 12.9012 15.4722 13.6874L16.9827 18.3105C17.2519 19.1344 16.3003 19.8423 15.5776 19.3201L11.6229 16.4629C10.9532 15.979 10.0468 15.979 9.37706 16.4629L5.42245 19.3201C4.69966 19.8423 3.74806 19.1345 4.01727 18.3105L5.5278 13.6874C5.78468 12.9012 5.50275 12.041 4.83231 11.5566L0.87769 8.69936C0.169225 8.18748 0.525492 7.064 1.41499 7.064H6.30316C7.1298 7.064 7.86487 6.53454 8.12159 5.74884L9.63212 1.12573Z" stroke="#FBBF24"/>
</svg>
