<svg width="48" height="48" viewBox="0 0 48 48" fill="none" xmlns="http://www.w3.org/2000/svg">
<path d="M33.3416 14.05C31.0532 11.7357 28.0129 10.3159 24.7695 10.0467C21.526 9.77762 18.2933 10.677 15.6548 12.5824C13.0163 14.4879 11.1461 17.2739 10.3816 20.4374C9.61721 23.601 10.009 26.9336 11.4863 29.8335L10.039 36.8605C10.0235 36.9307 10.0229 37.0033 10.0372 37.0738C10.0515 37.1442 10.0805 37.2108 10.1222 37.2694C10.1819 37.358 10.2673 37.4263 10.3668 37.4651C10.4664 37.5039 10.5755 37.5114 10.6794 37.4865L17.5544 35.8546C20.4464 37.2932 23.7551 37.6588 26.8915 36.8866C30.0279 36.1143 32.7884 34.2541 34.6819 31.6372C36.5753 29.0203 37.4787 25.8164 37.2313 22.5958C36.9839 19.3753 35.6017 16.347 33.3307 14.05H33.3416ZM31.1922 31.1904C29.6096 32.7702 27.5717 33.8143 25.3649 34.1758C23.1582 34.5373 20.8936 34.1981 18.8896 33.2059L17.9271 32.7283L13.7044 33.7269V33.6727L14.5945 29.4138L14.1242 28.4875C13.0995 26.4781 12.7377 24.1957 13.0907 21.9679C13.4437 19.7401 14.4933 17.6814 16.089 16.0871C18.0925 14.0857 20.8086 12.9615 23.6406 12.9615C26.4726 12.9615 29.1887 14.0857 31.1922 16.0871L31.2393 16.1523C33.2168 18.1601 34.3207 20.868 34.3105 23.6862C34.3004 26.5043 33.1769 29.2042 31.185 31.1977L31.1922 31.1904Z" fill="white"/>
<path d="M30.8195 28.0931C30.302 28.9073 29.4807 29.9023 28.4566 30.152C26.6474 30.5862 23.8938 30.152 20.4455 26.9642L20.402 26.9244C17.4024 24.1237 16.6063 21.7898 16.7836 19.9408C16.8886 18.8879 17.7642 17.9398 18.5024 17.3175C18.6197 17.2185 18.7586 17.1484 18.9079 17.1127C19.0572 17.077 19.2128 17.0767 19.3622 17.1119C19.5117 17.147 19.6508 17.2166 19.7685 17.3152C19.8862 17.4137 19.9793 17.5384 20.0402 17.6793L21.1511 20.1905C21.2236 20.3521 21.2508 20.5305 21.2297 20.7064C21.2087 20.8823 21.1402 21.0492 21.0316 21.1892L20.4672 21.9129C20.3498 22.0631 20.28 22.2449 20.2664 22.435C20.2529 22.6251 20.2963 22.815 20.3912 22.9803C20.9274 23.7706 21.5689 24.484 22.2981 25.1007C23.0826 25.8557 23.9723 26.4931 24.9395 26.9931C25.1161 27.0643 25.3098 27.0813 25.496 27.042C25.6822 27.0027 25.8525 26.9088 25.9853 26.7724L26.633 26.1139C26.7562 25.9813 26.9137 25.8855 27.0881 25.8369C27.2624 25.7884 27.4468 25.7891 27.6208 25.8389L30.2622 26.5951C30.4119 26.6377 30.5495 26.7149 30.6638 26.8205C30.778 26.9261 30.8659 27.0572 30.9201 27.203C30.9744 27.3489 30.9935 27.5055 30.9761 27.6601C30.9586 27.8147 30.9049 27.9631 30.8195 28.0931Z" fill="white"/>
</svg>
