<svg width="60" height="60" viewBox="0 0 60 60" fill="none" xmlns="http://www.w3.org/2000/svg">
<rect width="60" height="60" rx="30" fill="#BFDDF1"/>
<path fill-rule="evenodd" clip-rule="evenodd" d="M29.6938 37.3293C30.2529 37.2204 30.7942 37.5854 30.9031 38.1445L30.9057 38.1583C31.0146 38.7172 30.6496 39.2587 30.0905 39.3674C29.5314 39.4763 28.9901 39.1113 28.8813 38.5522L28.8786 38.5384C28.7698 37.9795 29.1347 37.438 29.6938 37.3293Z" fill="#284E65"/>
<path fill-rule="evenodd" clip-rule="evenodd" d="M29.6938 29.9333C30.2529 29.8244 30.7942 30.1894 30.9031 30.7484L30.9057 30.7621C31.0146 31.3212 30.6496 31.8627 30.0905 31.9714C29.5314 32.0803 28.9901 31.7153 28.8813 31.1562L28.8786 31.1425C28.7698 30.5835 29.1347 30.042 29.6938 29.9333Z" fill="#284E65"/>
<path fill-rule="evenodd" clip-rule="evenodd" d="M29.6938 33.6715C30.2529 33.5628 30.7942 33.9277 30.9031 34.4868L30.9057 34.5005C31.0146 35.0596 30.6496 35.6009 30.0905 35.7098C29.5314 35.8186 28.9901 35.4537 28.8813 34.8946L28.8786 34.8808C28.7698 34.3218 29.1347 33.7803 29.6938 33.6715Z" fill="#284E65"/>
<path fill-rule="evenodd" clip-rule="evenodd" d="M34.8812 37.3293C35.4403 37.2204 35.9817 37.5854 36.0905 38.1445L36.0933 38.1583C36.202 38.7172 35.8371 39.2587 35.278 39.3674C34.7189 39.4763 34.1775 39.1113 34.0687 38.5522L34.0661 38.5384C33.9572 37.9795 34.3223 37.438 34.8812 37.3293Z" fill="#284E65"/>
<path fill-rule="evenodd" clip-rule="evenodd" d="M34.8812 29.9333C35.4403 29.8244 35.9817 30.1894 36.0905 30.7484L36.0933 30.7621C36.202 31.3212 35.8371 31.8627 35.278 31.9714C34.7189 32.0803 34.1775 31.7153 34.0687 31.1562L34.0661 31.1425C33.9572 30.5835 34.3223 30.042 34.8812 29.9333Z" fill="#284E65"/>
<path fill-rule="evenodd" clip-rule="evenodd" d="M34.8812 33.6715C35.4403 33.5628 35.9817 33.9277 36.0905 34.4868L36.0933 34.5005C36.202 35.0596 35.8371 35.6009 35.278 35.7098C34.7189 35.8186 34.1775 35.4537 34.0687 34.8946L34.0661 34.8808C33.9572 34.3218 34.3223 33.7803 34.8812 33.6715Z" fill="#284E65"/>
<path fill-rule="evenodd" clip-rule="evenodd" d="M17.75 42.375C17.75 41.8055 18.2117 41.3438 18.7812 41.3438H42.2082C42.7777 41.3438 43.2394 41.8055 43.2394 42.375C43.2394 42.9445 42.7777 43.4062 42.2082 43.4062H18.7812C18.2117 43.4062 17.75 42.9445 17.75 42.375Z" fill="#284E65"/>
<path fill-rule="evenodd" clip-rule="evenodd" d="M23.6875 28.721C23.6875 26.6478 25.368 24.9673 27.4412 24.9673H37.5499C39.6233 24.9673 41.3037 26.6478 41.3037 28.721V42.3724C41.3037 42.9419 40.8419 43.4036 40.2724 43.4036C39.7029 43.4036 39.2412 42.9419 39.2412 42.3724V28.721C39.2412 27.7868 38.4841 27.0298 37.5499 27.0298H27.4412C26.5071 27.0298 25.75 27.7868 25.75 28.721V42.3724C25.75 42.9419 25.2883 43.4036 24.7188 43.4036C24.1492 43.4036 23.6875 42.9419 23.6875 42.3724V28.721Z" fill="#284E65"/>
<path fill-rule="evenodd" clip-rule="evenodd" d="M24.5174 20.96C25.0842 20.9048 25.5885 21.3196 25.6437 21.8865L25.645 21.9003C25.7002 22.4671 25.2854 22.9714 24.7185 23.0265C24.1516 23.0817 23.6474 22.6669 23.5922 22.1L23.5909 22.0863C23.5357 21.5194 23.9505 21.0152 24.5174 20.96ZM28.3897 20.96C28.9566 20.9048 29.4608 21.3196 29.5161 21.8865L29.5174 21.9003C29.5726 22.4671 29.1578 22.9714 28.5909 23.0265C28.0241 23.0817 27.5198 22.6669 27.4646 22.1L27.4632 22.0863C27.4081 21.5194 27.8229 21.0152 28.3897 20.96Z" fill="#284E65"/>
<path fill-rule="evenodd" clip-rule="evenodd" d="M23.4283 18.6562C22.4908 18.6562 21.7344 19.4126 21.7344 20.3488V42.371C21.7344 42.9405 21.2727 43.4023 20.7031 43.4023C20.1336 43.4023 19.6719 42.9405 19.6719 42.371V20.3488C19.6719 18.2722 21.353 16.5938 23.4283 16.5938H29.7696C31.8449 16.5938 33.5261 18.2722 33.5261 20.3488V25.9972C33.5261 26.5667 33.0644 27.0284 32.4949 27.0284C31.9253 27.0284 31.4636 26.5667 31.4636 25.9972V20.3488C31.4636 19.4126 30.7072 18.6562 29.7696 18.6562H23.4283Z" fill="#284E65"/>
</svg>
