<svg width="61" height="61" viewBox="0 0 61 61" fill="none" xmlns="http://www.w3.org/2000/svg">
<path d="M7.625 30.0528V21.6818C7.625 15.4747 11.4903 11.0901 17.7024 11.0901H43.2975C49.4924 11.0901 53.375 15.4747 53.375 21.6818V38.424C53.375 44.631 49.5096 49.0156 43.2975 49.0156H29.5405" stroke="#284E65" stroke-width="3" stroke-linecap="round" stroke-linejoin="round"/>
<path d="M53.375 24.5469H7.625" stroke="#284E65" stroke-width="3" stroke-linecap="round" stroke-linejoin="round"/>
<path d="M14.2223 35.8018L13.9655 36.4966C12.9975 39.1166 10.9349 41.1822 8.3187 42.1516L7.625 42.4088L8.3187 42.666C10.9349 43.6354 12.9975 45.701 13.9655 48.321L14.2223 49.0159L14.479 48.321C15.4471 45.701 17.5097 43.6354 20.1259 42.666L20.8198 42.4088L20.1259 42.1516C17.5097 41.1822 15.4471 39.1166 14.479 36.4966L14.2223 35.8018Z" stroke="#EC1E28" stroke-width="3" stroke-linecap="round" stroke-linejoin="round"/>
<path d="M28.9986 34.1045C28.5624 35.5398 27.4408 36.6629 26.0078 37.0996C27.4408 37.5365 28.5624 38.6597 28.9986 40.0949C29.4347 38.6597 30.5564 37.5365 31.9894 37.0996C30.5564 36.6629 29.4347 35.5398 28.9986 34.1045Z" stroke="#EC1E28" stroke-width="3" stroke-linecap="round" stroke-linejoin="round"/>
</svg>
