<svg width="48" height="48" viewBox="0 0 48 48" fill="none" xmlns="http://www.w3.org/2000/svg">
<path fill-rule="evenodd" clip-rule="evenodd" d="M16.3756 16.5206C17.2843 15.5457 18.5785 15 20.1066 15H27.8925C29.4242 15 30.7189 15.5454 31.6273 16.5209C32.5304 17.4908 33 18.8297 33 20.332V27.6679C33 29.1702 32.5304 30.5092 31.6271 31.4791C30.7186 32.4546 29.4236 33 27.8916 33H20.1066C18.5749 33 17.2804 32.4546 16.3722 31.479C15.4693 30.5091 15 29.1702 15 27.6679V20.332C15 18.829 15.4718 17.4902 16.3756 16.5206ZM17.3884 17.4647C16.7633 18.1354 16.3846 19.1165 16.3846 20.332V27.6679C16.3846 28.8844 16.7618 29.8653 17.3857 30.5356C18.0044 31.2003 18.917 31.6154 20.1066 31.6154H27.8916C29.0817 31.6154 29.9948 31.2002 30.6138 30.5355C31.238 29.8652 31.6154 28.8843 31.6154 27.6679V20.332C31.6154 19.1157 31.238 18.1347 30.6139 17.4645C29.995 16.7998 29.0821 16.3846 27.8925 16.3846H20.1066C18.9215 16.3846 18.0085 16.7995 17.3884 17.4647Z" fill="#284E65"/>
<path fill-rule="evenodd" clip-rule="evenodd" d="M19 20.7166C19 20.3208 19.3246 20 19.7251 20H20.0195C20.4199 20 20.7446 20.3208 20.7446 20.7166C20.7446 21.1124 20.4199 21.4332 20.0195 21.4332H19.7251C19.3246 21.4332 19 21.1124 19 20.7166ZM22.4422 20.7166C22.4422 20.3208 22.7668 20 23.1673 20H28.2749C28.6754 20 29 20.3208 29 20.7166C29 21.1124 28.6754 21.4332 28.2749 21.4332H23.1673C22.7668 21.4332 22.4422 21.1124 22.4422 20.7166ZM19 24.5005C19 24.1047 19.3246 23.7839 19.7251 23.7839H20.0195C20.4199 23.7839 20.7446 24.1047 20.7446 24.5005C20.7446 24.8962 20.4199 25.2171 20.0195 25.2171H19.7251C19.3246 25.2171 19 24.8962 19 24.5005ZM22.4422 24.5005C22.4422 24.1047 22.7668 23.7839 23.1673 23.7839H28.2749C28.6754 23.7839 29 24.1047 29 24.5005C29 24.8962 28.6754 25.2171 28.2749 25.2171H23.1673C22.7668 25.2171 22.4422 24.8962 22.4422 24.5005ZM19 28.2834C19 27.8877 19.3246 27.5668 19.7251 27.5668H20.0195C20.4199 27.5668 20.7446 27.8877 20.7446 28.2834C20.7446 28.6792 20.4199 29 20.0195 29H19.7251C19.3246 29 19 28.6792 19 28.2834ZM22.4422 28.2834C22.4422 27.8877 22.7668 27.5668 23.1673 27.5668H28.2749C28.6754 27.5668 29 27.8877 29 28.2834C29 28.6792 28.6754 29 28.2749 29H23.1673C22.7668 29 22.4422 28.6792 22.4422 28.2834Z" fill="#284E65"/>
</svg>
