<svg width="33" height="33" viewBox="0 0 33 33" fill="none" xmlns="http://www.w3.org/2000/svg">
<path fill-rule="evenodd" clip-rule="evenodd" d="M16.6938 23.8293C17.2529 23.7204 17.7942 24.0854 17.9031 24.6445L17.9057 24.6583C18.0146 25.2172 17.6496 25.7587 17.0905 25.8674C16.5314 25.9763 15.9901 25.6113 15.8813 25.0522L15.8786 25.0384C15.7698 24.4795 16.1347 23.938 16.6938 23.8293Z" fill="#284E65"/>
<path fill-rule="evenodd" clip-rule="evenodd" d="M16.6938 16.4333C17.2529 16.3244 17.7942 16.6894 17.9031 17.2484L17.9057 17.2621C18.0146 17.8212 17.6496 18.3627 17.0905 18.4714C16.5314 18.5803 15.9901 18.2153 15.8813 17.6562L15.8786 17.6425C15.7698 17.0835 16.1347 16.542 16.6938 16.4333Z" fill="#284E65"/>
<path fill-rule="evenodd" clip-rule="evenodd" d="M16.6938 20.1715C17.2529 20.0628 17.7942 20.4277 17.9031 20.9868L17.9057 21.0005C18.0146 21.5596 17.6496 22.1009 17.0905 22.2098C16.5314 22.3186 15.9901 21.9537 15.8813 21.3946L15.8786 21.3808C15.7698 20.8218 16.1347 20.2803 16.6938 20.1715Z" fill="#284E65"/>
<path fill-rule="evenodd" clip-rule="evenodd" d="M21.8812 23.8293C22.4403 23.7204 22.9817 24.0854 23.0905 24.6445L23.0933 24.6583C23.202 25.2172 22.8371 25.7587 22.278 25.8674C21.7189 25.9763 21.1775 25.6113 21.0687 25.0522L21.0661 25.0384C20.9572 24.4795 21.3223 23.938 21.8812 23.8293Z" fill="#284E65"/>
<path fill-rule="evenodd" clip-rule="evenodd" d="M21.8812 16.4333C22.4403 16.3244 22.9817 16.6894 23.0905 17.2484L23.0933 17.2621C23.202 17.8212 22.8371 18.3627 22.278 18.4714C21.7189 18.5803 21.1775 18.2153 21.0687 17.6562L21.0661 17.6425C20.9572 17.0835 21.3223 16.542 21.8812 16.4333Z" fill="#284E65"/>
<path fill-rule="evenodd" clip-rule="evenodd" d="M21.8812 20.1715C22.4403 20.0628 22.9817 20.4277 23.0905 20.9868L23.0933 21.0005C23.202 21.5596 22.8371 22.1009 22.278 22.2098C21.7189 22.3186 21.1775 21.9537 21.0687 21.3946L21.0661 21.3808C20.9572 20.8218 21.3223 20.2803 21.8812 20.1715Z" fill="#284E65"/>
<path fill-rule="evenodd" clip-rule="evenodd" d="M4.75 28.875C4.75 28.3055 5.2117 27.8438 5.78125 27.8438H29.2082C29.7777 27.8438 30.2394 28.3055 30.2394 28.875C30.2394 29.4445 29.7777 29.9062 29.2082 29.9062H5.78125C5.2117 29.9062 4.75 29.4445 4.75 28.875Z" fill="#284E65"/>
<path fill-rule="evenodd" clip-rule="evenodd" d="M10.6875 15.221C10.6875 13.1478 12.368 11.4673 14.4412 11.4673H24.5499C26.6233 11.4673 28.3037 13.1478 28.3037 15.221V28.8724C28.3037 29.4419 27.8419 29.9036 27.2724 29.9036C26.7029 29.9036 26.2412 29.4419 26.2412 28.8724V15.221C26.2412 14.2868 25.4841 13.5298 24.5499 13.5298H14.4412C13.5071 13.5298 12.75 14.2868 12.75 15.221V28.8724C12.75 29.4419 12.2883 29.9036 11.7188 29.9036C11.1492 29.9036 10.6875 29.4419 10.6875 28.8724V15.221Z" fill="#284E65"/>
<path fill-rule="evenodd" clip-rule="evenodd" d="M11.5174 7.46C12.0842 7.40482 12.5885 7.81963 12.6437 8.38651L12.645 8.40026C12.7002 8.96713 12.2854 9.47138 11.7185 9.52655C11.1516 9.58171 10.6474 9.1669 10.5922 8.60004L10.5909 8.58629C10.5357 8.01942 10.9505 7.51517 11.5174 7.46ZM15.3897 7.46C15.9566 7.40482 16.4608 7.81963 16.5161 8.38651L16.5174 8.40026C16.5726 8.96713 16.1578 9.47138 15.5909 9.52655C15.0241 9.58171 14.5198 9.1669 14.4646 8.60004L14.4632 8.58629C14.4081 8.01942 14.8229 7.51517 15.3897 7.46Z" fill="#284E65"/>
<path fill-rule="evenodd" clip-rule="evenodd" d="M10.4283 5.15625C9.49078 5.15625 8.73438 5.91264 8.73438 6.84883V28.871C8.73438 29.4405 8.27268 29.9023 7.70312 29.9023C7.13359 29.9023 6.67188 29.4405 6.67188 28.871V6.84883C6.67188 4.77223 8.35302 3.09375 10.4283 3.09375H16.7696C18.8449 3.09375 20.5261 4.77223 20.5261 6.84883V12.4972C20.5261 13.0667 20.0644 13.5284 19.4949 13.5284C18.9253 13.5284 18.4636 13.0667 18.4636 12.4972V6.84883C18.4636 5.91264 17.7072 5.15625 16.7696 5.15625H10.4283Z" fill="#284E65"/>
</svg>
