<svg width="31" height="33" viewBox="0 0 31 33" fill="none" xmlns="http://www.w3.org/2000/svg">
<path fill-rule="evenodd" clip-rule="evenodd" d="M17.5616 5.10962L18.5077 5.21469C23.6472 5.78542 27.7077 9.8403 28.2841 14.9799L28.3902 15.926L26.4981 16.1381L26.392 15.1921C25.9149 10.9369 22.553 7.57947 18.2976 7.10689L17.3516 7.00183L17.5616 5.10962Z" fill="#284E65"/>
<path fill-rule="evenodd" clip-rule="evenodd" d="M17.6443 9.54175L18.5788 9.72326C21.208 10.234 23.262 12.29 23.7739 14.918L23.9559 15.8523L22.0872 16.2163L21.9052 15.2821C21.5414 13.4145 20.0822 11.9547 18.2158 11.5922L17.2812 11.4107L17.6443 9.54175Z" fill="#284E65"/>
<path fill-rule="evenodd" clip-rule="evenodd" d="M8.53676 4.90356L13.521 11.7499L11.3316 15.5522C11.4094 15.7818 11.5345 16.1122 11.7209 16.5055C12.101 17.3074 12.7291 18.3566 13.7186 19.3459C14.7667 20.3942 15.8789 21.0813 16.7302 21.5059C17.1536 21.7171 17.5089 21.8615 17.754 21.9519L21.5454 19.7688L28.5742 24.9517L28.1639 25.6845C26.9895 27.783 25.4903 29.2822 23.3918 30.4566L23.1953 30.5667L22.9704 30.577C16.7782 30.8604 11.4537 27.4932 7.87049 23.3256C6.07272 21.2347 4.68318 18.9105 3.81834 16.6734C2.96004 14.4532 2.58757 12.2366 2.93248 10.3924L2.96271 10.2307L3.04544 10.0886C4.23187 8.04985 5.7636 6.53013 7.79303 5.3398L8.53676 4.90356ZM17.8588 22.99C17.6071 23.9081 17.6069 23.9081 17.6065 23.9079L17.6044 23.9074L17.6009 23.9064L17.591 23.9036L17.5602 23.8946C17.5349 23.8872 17.5002 23.8767 17.457 23.8629C17.3703 23.8353 17.2486 23.7947 17.0975 23.739C16.7957 23.6278 16.3748 23.4562 15.8805 23.2096C14.8939 22.7175 13.5994 21.9193 12.3724 20.6922C11.1941 19.5138 10.4504 18.27 10.0005 17.3209C9.77511 16.8453 9.62181 16.4401 9.52361 16.149C9.47445 16.0032 9.43897 15.8855 9.41504 15.8012C9.40307 15.7592 9.39398 15.7253 9.38752 15.7006L9.37977 15.6701L9.37731 15.6601L9.3764 15.6564L9.37605 15.6549C9.37597 15.6546 9.37575 15.6536 10.3018 15.433L9.37574 15.6536L9.28813 15.2858L11.2543 11.8711L8.02929 7.44126C6.68302 8.35797 5.63349 9.47216 4.7769 10.9006C4.56848 12.2504 4.83601 14.0259 5.59411 15.9869C6.37569 18.0087 7.64856 20.1473 9.31411 22.0844C12.611 25.919 17.3297 28.841 22.6576 28.6837C24.1018 27.8419 25.1826 26.8274 26.0698 25.4706L21.4171 22.0396L17.9898 24.013L17.6065 23.9079L17.8588 22.99Z" fill="#284E65"/>
</svg>
