<svg width="48" height="48" viewBox="0 0 48 48" fill="none" xmlns="http://www.w3.org/2000/svg">
<path fill-rule="evenodd" clip-rule="evenodd" d="M17.1653 24.0001C17.2061 24.0001 17.2474 24.0002 17.2891 24.0002H31.7109C31.7526 24.0002 31.7939 24.0001 31.8347 24.0001C32.4164 23.9994 32.9067 23.9989 33.3263 24.1298C34.036 24.3513 34.5947 24.8355 34.8502 25.4504C35.0012 25.8141 35.0007 26.239 34.9999 26.7432C34.9998 26.7786 34.9998 26.8143 34.9998 26.8504V28.1496C34.9998 28.1857 34.9998 28.2214 34.9999 28.2568C35.0007 28.761 35.0012 29.1859 34.8502 29.5495C34.5947 30.1645 34.036 30.6487 33.3263 30.8701C32.9067 31.001 32.4164 31.0006 31.8347 30.9999C31.7939 30.9998 31.7526 30.9998 31.7109 30.9998H17.2891C17.2474 30.9998 17.2061 30.9998 17.1653 30.9999C16.5836 31.0006 16.0933 31.001 15.6737 30.8701C14.964 30.6487 14.4053 30.1645 14.1498 29.5495C13.9988 29.1859 13.9994 28.761 14.0001 28.2568C14.0002 28.2214 14.0002 28.1857 14.0002 28.1496V26.8504C14.0002 26.8143 14.0002 26.7786 14.0001 26.7432C13.9994 26.239 13.9988 25.8141 14.1498 25.4504C14.4053 24.8355 14.964 24.3513 15.6737 24.1298C16.0933 23.9989 16.5836 23.9994 17.1653 24.0001ZM17.2891 25.4001C16.5137 25.4001 16.3377 25.4106 16.2209 25.447C15.9642 25.527 15.7621 25.7022 15.6697 25.9247C15.6276 26.026 15.6156 26.1784 15.6156 26.8504V28.1496C15.6156 28.8215 15.6276 28.974 15.6697 29.0753C15.7621 29.2978 15.9642 29.4729 16.2209 29.5529C16.3377 29.5894 16.5137 29.5999 17.2891 29.5999H31.7109C32.4863 29.5999 32.6623 29.5894 32.7791 29.5529C33.0358 29.4729 33.2379 29.2978 33.3303 29.0753C33.3724 28.974 33.3844 28.8215 33.3844 28.1496V26.8504C33.3844 26.1784 33.3724 26.026 33.3303 25.9247C33.2379 25.7022 33.0358 25.527 32.7791 25.447C32.6623 25.4106 32.4863 25.4001 31.7109 25.4001H17.2891Z" fill="#284E65"/>
<path fill-rule="evenodd" clip-rule="evenodd" d="M17.7962 30C18.2359 30 18.5924 30.329 18.5924 30.7348V32.2652C18.5924 32.671 18.2359 33 17.7962 33C17.3565 33 17 32.671 17 32.2652V30.7348C17 30.329 17.3565 30 17.7962 30ZM32.2038 30C32.6435 30 33 30.329 33 30.7348V32.2652C33 32.671 32.6435 33 32.2038 33C31.7641 33 31.4076 32.671 31.4076 32.2652V30.7348C31.4076 30.329 31.7641 30 32.2038 30Z" fill="#284E65"/>
<path fill-rule="evenodd" clip-rule="evenodd" d="M19.9253 16.0001C19.963 16.0001 20.0011 16.0002 20.0396 16.0002H28.9604C28.9989 16.0002 29.037 16.0001 29.0746 16.0001C29.6124 15.9994 30.0655 15.9988 30.4532 16.1433C31.1091 16.3876 31.6254 16.922 31.8615 17.6007C32.0011 18.002 32.0005 18.4709 31.9999 19.0274C31.9998 19.0664 31.9998 19.1058 31.9998 19.1457V24.2275C31.9998 24.6541 31.6656 25 31.2534 25C30.8411 25 30.507 24.6541 30.507 24.2275V19.1457C30.507 18.4041 30.4958 18.2358 30.4569 18.124C30.3715 17.8785 30.1847 17.6853 29.9475 17.5969C29.8396 17.5566 29.6769 17.5451 28.9604 17.5451H20.0396C19.323 17.5451 19.1604 17.5566 19.0524 17.5969C18.8152 17.6853 18.6285 17.8785 18.543 18.124C18.5042 18.2358 18.493 18.4041 18.493 19.1457V24.2275C18.493 24.6541 18.1589 25 17.7466 25C17.3344 25 17.0002 24.6541 17.0002 24.2275V19.1457C17.0002 19.1058 17.0001 19.0664 17.0001 19.0274C16.9994 18.4709 16.9988 18.002 17.1384 17.6007C17.3746 16.922 17.8909 16.3876 18.5467 16.1433C18.9345 15.9988 19.3876 15.9994 19.9253 16.0001Z" fill="#284E65"/>
<path fill-rule="evenodd" clip-rule="evenodd" d="M24 23.0594C24 21.922 25.3431 21 27 21C28.6569 21 30 21.922 30 23.0594V23.4851C30 23.7695 29.6642 24 29.25 24C28.8358 24 28.5 23.7695 28.5 23.4851V23.0594C28.5 22.4908 27.8284 22.0297 27 22.0297C26.1716 22.0297 25.5 22.4908 25.5 23.0594V23.4637C25.5 23.748 25.1642 23.9785 24.75 23.9785C24.3358 23.9785 24 23.748 24 23.4637V23.0594Z" fill="#284E65"/>
<path fill-rule="evenodd" clip-rule="evenodd" d="M19.0576 23.0601C19.1274 21.9223 20.5247 21.0823 22.1784 21.1839C23.8322 21.2854 25.1162 22.2901 25.0463 23.4279C25.0288 23.7123 24.6795 23.9223 24.2661 23.8969C23.8527 23.8715 23.5317 23.6203 23.5491 23.3359C23.584 22.7671 22.942 22.2647 22.1152 22.2139C21.2883 22.1631 20.5897 22.5832 20.5548 23.152L20.529 23.5713C20.5115 23.8557 20.1622 24.0657 19.7488 24.0403C19.3354 24.0149 19.0144 23.7638 19.0318 23.4793L19.0576 23.0601Z" fill="#284E65"/>
</svg>
