<svg width="48" height="48" viewBox="0 0 48 48" fill="none" xmlns="http://www.w3.org/2000/svg">
<g clip-path="url(#clip0_159_3914)">
<path d="M24 48C37.2548 48 48 37.2548 48 24C48 10.7452 37.2548 0 24 0C10.7452 0 0 10.7452 0 24C0 37.2548 10.7452 48 24 48Z" fill="#284E65"/>
<path d="M32.4665 15.5338C30.4694 13.5141 27.8161 12.2749 24.9854 12.0401C22.1548 11.8052 19.3335 12.5901 17.0308 14.253C14.7281 15.916 13.0959 18.3474 12.4288 21.1083C11.7616 23.8692 12.1036 26.7776 13.3929 29.3085L12.1297 35.4412C12.1162 35.5024 12.1157 35.5658 12.1282 35.6273C12.1407 35.6888 12.1659 35.7469 12.2023 35.798C12.2544 35.8754 12.3289 35.9349 12.4159 35.9688C12.5028 36.0027 12.5979 36.0092 12.6886 35.9875L18.6886 34.5633C21.2126 35.8187 24.1002 36.1379 26.8374 35.4639C29.5746 34.7899 31.9838 33.1665 33.6362 30.8826C35.2887 28.5988 36.0771 25.8027 35.8612 22.992C35.6452 20.1813 34.439 17.5384 32.4571 15.5338H32.4665ZM30.5908 30.4927C29.2096 31.8715 27.431 32.7827 25.5051 33.0982C23.5792 33.4137 21.6028 33.1176 19.8539 32.2517L19.0139 31.8348L15.3286 32.7064V32.6591L16.1055 28.9422L15.695 28.1338C14.8007 26.3801 14.485 24.3882 14.793 22.444C15.1011 20.4997 16.0171 18.703 17.4097 17.3117C19.1582 15.565 21.5287 14.5838 24.0002 14.5838C26.4718 14.5838 28.8422 15.565 30.5908 17.3117L30.6318 17.3685C32.3576 19.1208 33.321 21.4841 33.3122 23.9435C33.3033 26.403 32.3229 28.7593 30.5844 30.4991L30.5908 30.4927Z" fill="#284E65"/>
<path d="M30.2655 27.7896C29.8139 28.5001 29.097 29.3685 28.2034 29.5864C26.6244 29.9654 24.2213 29.5864 21.2118 26.8043L21.1739 26.7696C18.556 24.3254 17.8613 22.2885 18.016 20.6749C18.1076 19.7559 18.8718 18.9285 19.516 18.3854C19.6184 18.299 19.7396 18.2378 19.8699 18.2067C20.0002 18.1755 20.136 18.1753 20.2664 18.2059C20.3968 18.2366 20.5183 18.2974 20.621 18.3834C20.7237 18.4694 20.8049 18.5782 20.8581 18.7012L21.8276 20.8928C21.8909 21.0338 21.9146 21.1895 21.8962 21.343C21.8779 21.4965 21.8181 21.6422 21.7234 21.7643L21.2307 22.3959C21.1283 22.527 21.0673 22.6857 21.0555 22.8516C21.0437 23.0175 21.0816 23.1832 21.1644 23.3275C21.6324 24.0172 22.1923 24.6398 22.8286 25.178C23.5133 25.8369 24.2898 26.3932 25.1339 26.8296C25.288 26.8917 25.457 26.9065 25.6195 26.8722C25.7821 26.8379 25.9307 26.756 26.0465 26.637L26.6118 26.0622C26.7193 25.9466 26.8568 25.8629 27.009 25.8206C27.1611 25.7782 27.322 25.7788 27.4739 25.8222L29.7792 26.4822C29.9098 26.5194 30.0298 26.5868 30.1296 26.679C30.2293 26.7711 30.306 26.8855 30.3533 27.0128C30.4007 27.1401 30.4174 27.2767 30.4021 27.4117C30.3869 27.5466 30.34 27.6761 30.2655 27.7896Z" fill="#284E65"/>
<path d="M33.75 27.1513C33.75 29.9677 31.8283 32.2569 28.9774 32.25H19.7726C16.9216 32.2569 15 29.9677 15 27.1513V20.8556C15 18.0422 16.9216 15.75 19.7726 15.75H28.9774C31.8283 15.75 33.75 18.0422 33.75 20.8556V27.1513Z" stroke="white" stroke-width="2" stroke-linecap="round" stroke-linejoin="round"/>
<path d="M33 18.75L26.4956 24.0224C25.2707 24.9925 23.5347 24.9925 22.3097 24.0224L15.75 18.75" stroke="white" stroke-width="2" stroke-linecap="round" stroke-linejoin="round"/>
<path d="M21.0618 23.25L15.75 29.2492M33 29.25L27.7467 23.2508" stroke="white" stroke-width="2" stroke-linecap="round" stroke-linejoin="round"/>
</g>
<defs>
<clipPath id="clip0_159_3914">
<rect width="48" height="48" fill="white"/>
</clipPath>
</defs>
</svg>
