<svg width="33" height="33" viewBox="0 0 33 33" fill="none" xmlns="http://www.w3.org/2000/svg">
<rect width="33" height="33" rx="8" fill="#FBBF24"/>
<path d="M8.744 14.746H9.766C10.2887 14.746 10.69 14.6153 10.97 14.354C11.2593 14.0833 11.404 13.71 11.404 13.234C11.404 12.8047 11.2687 12.464 10.998 12.212C10.7367 11.9507 10.3727 11.82 9.906 11.82C9.486 11.82 9.13133 11.946 8.842 12.198C8.55267 12.4407 8.408 12.7487 8.408 13.122H6.588C6.588 12.73 6.69067 12.3287 6.896 11.918C7.11067 11.498 7.46533 11.1433 7.96 10.854C8.464 10.5553 9.11733 10.406 9.92 10.406C10.9373 10.406 11.74 10.658 12.328 11.162C12.916 11.666 13.21 12.352 13.21 13.22C13.21 13.6773 13.0653 14.0973 12.776 14.48C12.496 14.8627 12.0993 15.166 11.586 15.39C12.1553 15.5767 12.5987 15.8707 12.916 16.272C13.2333 16.664 13.392 17.154 13.392 17.742C13.392 18.3207 13.2427 18.8293 12.944 19.268C12.6547 19.7067 12.244 20.0473 11.712 20.29C11.18 20.5233 10.564 20.64 9.864 20.64C9.20133 20.6307 8.60867 20.5093 8.086 20.276C7.56333 20.0333 7.15267 19.6973 6.854 19.268C6.56467 18.8293 6.42 18.316 6.42 17.728H8.24C8.24 18.148 8.39867 18.5027 8.716 18.792C9.04267 19.0813 9.444 19.226 9.92 19.226C10.424 19.226 10.8253 19.086 11.124 18.806C11.4227 18.526 11.572 18.162 11.572 17.714C11.572 16.6407 10.9747 16.104 9.78 16.104H8.744V14.746ZM16.42 20.542C16.0934 20.542 15.818 20.43 15.594 20.206C15.37 19.982 15.258 19.7067 15.258 19.38C15.258 19.0627 15.37 18.7967 15.594 18.582C15.818 18.358 16.0934 18.246 16.42 18.246C16.728 18.246 16.994 18.358 17.218 18.582C17.442 18.7967 17.554 19.0627 17.554 19.38C17.554 19.6973 17.442 19.9727 17.218 20.206C16.994 20.43 16.728 20.542 16.42 20.542ZM19.7762 15.544L20.3642 10.56H25.9222V11.974H21.8342L21.5682 14.466C21.7642 14.3447 22.0069 14.242 22.2962 14.158C22.5949 14.074 22.8842 14.032 23.1642 14.032C24.1162 14.032 24.8582 14.3213 25.3902 14.9C25.9316 15.4787 26.2022 16.2767 26.2022 17.294C26.2022 17.9567 26.0716 18.54 25.8102 19.044C25.5489 19.548 25.1709 19.94 24.6762 20.22C24.1816 20.5 23.5936 20.64 22.9122 20.64C22.2589 20.64 21.6756 20.514 21.1622 20.262C20.6582 20.0007 20.2616 19.6507 19.9722 19.212C19.6922 18.764 19.5522 18.2693 19.5522 17.728H21.3862C21.4142 18.1947 21.5589 18.5633 21.8202 18.834C22.0909 19.0953 22.4549 19.226 22.9122 19.226C23.9016 19.226 24.3962 18.5493 24.3962 17.196C24.3962 16.5893 24.2469 16.1227 23.9482 15.796C23.6496 15.46 23.2249 15.292 22.6742 15.292C22.0489 15.292 21.5636 15.4927 21.2182 15.894L19.7762 15.544Z" fill="#18181B"/>
</svg>
