<svg width="58" height="61" viewBox="0 0 58 61" fill="none" xmlns="http://www.w3.org/2000/svg">
<path d="M49.1842 41.6167C50.4411 38.7873 51.1484 35.645 51.1484 32.3449C51.1484 19.7139 40.8933 9.47852 28.2623 9.47852C15.6511 9.47852 5.39844 19.7139 5.39844 32.3449C5.39844 35.2112 5.92832 37.964 6.89197 40.478" stroke="#EC1E28" stroke-width="3" stroke-linecap="round" stroke-linejoin="round"/>
<path fill-rule="evenodd" clip-rule="evenodd" d="M10.9032 48.1284C12.2242 50.4205 15.1571 51.2044 17.4467 49.8809C19.7338 48.5572 20.5175 45.6318 19.1965 43.3448L15.1743 36.3725C13.8533 34.0829 10.9279 33.2965 8.63827 34.6177L8.07387 34.9405C6.63702 35.7711 5.91244 37.4766 6.4029 39.0613C7.27536 41.8856 8.77136 44.9244 10.9032 48.1284Z" stroke="#284E65" stroke-width="3" stroke-linecap="round" stroke-linejoin="round"/>
<path fill-rule="evenodd" clip-rule="evenodd" d="M45.6538 48.1284C44.3329 50.4205 41.4001 51.2044 39.1103 49.8809C36.8233 48.5572 36.0395 45.6318 37.3606 43.3448L41.3828 36.3725C42.7037 34.0829 45.6292 33.2965 47.9212 34.6177L48.4832 34.9405C49.92 35.7711 50.6446 37.4766 50.1541 39.0613C49.2818 41.8856 47.7858 44.9244 45.6538 48.1284Z" stroke="#284E65" stroke-width="3" stroke-linecap="round" stroke-linejoin="round"/>
</svg>
