<svg width="48" height="48" viewBox="0 0 48 48" fill="none" xmlns="http://www.w3.org/2000/svg">
<path fill-rule="evenodd" clip-rule="evenodd" d="M18.2554 18.327C17.6656 18.9594 17.3079 19.8851 17.3079 21.0334V27.9657C17.3079 29.1149 17.664 30.0407 18.2526 30.673C18.8363 31.3 19.6974 31.6914 20.8196 31.6914H28.1727C29.2947 31.6914 30.158 31.2999 30.7439 30.6723C31.3345 30.0398 31.6921 29.1141 31.6921 27.9657V21.0334C31.6921 19.8851 31.3345 18.9597 30.744 18.3273C30.1581 17.7 29.2948 17.3086 28.1727 17.3086H20.8196C19.702 17.3086 18.8405 17.6996 18.2554 18.327ZM17.2991 17.4343C18.1571 16.5143 19.3785 16 20.8196 16H28.1727C29.6171 16 30.8405 16.5139 31.6996 17.434C32.5542 18.349 33 19.6131 33 21.0334V27.9657C33 29.386 32.5542 30.6503 31.6997 31.5655C30.8406 32.4858 29.6172 33 28.1727 33H20.8196C19.3746 33 18.1528 32.4857 17.2955 31.5649C16.4431 30.6492 16 29.385 16 27.9657V21.0334C16 19.6132 16.4458 18.3492 17.2991 17.4343Z" fill="#284E65"/>
<path fill-rule="evenodd" clip-rule="evenodd" d="M22.0004 21.2197C21.5686 21.2197 21.2195 21.569 21.2195 22C21.2195 22.431 21.5686 22.7803 22.0004 22.7803C22.4312 22.7803 22.7805 22.4312 22.7805 22C22.7805 21.5688 22.4312 21.2197 22.0004 21.2197ZM20 22C20 20.8945 20.896 20 22.0004 20C23.1042 20 24 20.8947 24 22C24 23.1053 23.1042 24 22.0004 24C20.896 24 20 23.1055 20 22Z" fill="#284E65"/>
<path fill-rule="evenodd" clip-rule="evenodd" d="M32.9995 23.6167C33.0141 23.9711 32.7305 24.2699 32.3662 24.284C28.7417 24.425 25.6356 26.5466 24.1576 29.5612C23.7247 30.4511 23.4362 31.4093 23.3161 32.4307C23.2747 32.7831 22.9475 33.0361 22.5853 32.9958C22.223 32.9555 21.9629 32.6371 22.0043 32.2847C22.1412 31.12 22.4709 30.0255 22.9645 29.0108L22.9653 29.0092C24.6461 25.5802 28.1806 23.1613 32.3135 23.0005C32.6778 22.9864 32.9849 23.2622 32.9995 23.6167Z" fill="#284E65"/>
<path fill-rule="evenodd" clip-rule="evenodd" d="M16.0021 25.6012C16.0304 25.241 16.3344 24.9729 16.6812 25.0022C19.5766 25.2472 22.1327 26.7239 23.8592 28.9334C24.0784 29.2141 24.0371 29.6261 23.7669 29.8538C23.4968 30.0815 23.0999 30.0385 22.8807 29.758C21.364 27.8169 19.1205 26.5215 16.5789 26.3064C16.2321 26.2771 15.9739 25.9614 16.0021 25.6012Z" fill="#284E65"/>
</svg>
