<svg width="48" height="48" viewBox="0 0 48 48" fill="none" xmlns="http://www.w3.org/2000/svg">
<path d="M24.812 30.4957C28.9879 29.9849 32.4041 26.9366 31.9613 22.3608C31.5958 18.5915 28.6309 15.4761 24.9389 15.0538C20.0731 14.4963 16.2303 18.3425 16.0089 23.1518C15.7923 27.8775 19.5616 31.7742 23.7346 32.9816C24.0505 33.0721 24.3625 32.8162 24.3625 32.4806V30.9987C24.3625 30.738 24.5572 30.5268 24.812 30.4957Z" stroke="#284E65" stroke-width="1.5" stroke-linecap="round" stroke-linejoin="round"/>
<path fill-rule="evenodd" clip-rule="evenodd" d="M21.1174 23.8665C20.7786 22.7489 21.1747 21.4724 22.2853 21.0954C22.8697 20.8976 23.5095 21.0116 24.0006 21.3994C24.4919 21.0145 25.1279 20.9015 25.7123 21.0954C26.823 21.4724 27.2218 22.7489 26.8829 23.8665C26.3558 25.6359 24.0006 27 24.0006 27C24.0006 27 21.663 25.6564 21.1174 23.8665Z" stroke="#284E65" stroke-width="1.5" stroke-linecap="round" stroke-linejoin="round"/>
</svg>
