<svg width="61" height="61" viewBox="0 0 61 61" fill="none" xmlns="http://www.w3.org/2000/svg">
<path fill-rule="evenodd" clip-rule="evenodd" d="M31.9474 37.8126C23.7675 37.8317 15.9301 40.5327 11.6169 45.4826C10.9252 46.2764 9.72113 46.3592 8.92739 45.6674C8.13365 44.9758 8.0509 43.7718 8.74256 42.978C14.0319 36.908 23.1169 34.0207 31.9385 34.0001C40.7647 33.9798 49.9221 36.8272 55.3683 42.9651C56.067 43.7525 55.9951 44.9575 55.2077 45.6562C54.42 46.3549 53.2153 46.283 52.5166 45.4956C48.045 40.4562 40.1224 37.7938 31.9474 37.8126Z" fill="#284E65"/>
<path fill-rule="evenodd" clip-rule="evenodd" d="M24.552 9.851C25.5977 9.72859 26.5445 10.477 26.667 11.5227L30.0718 40.611C30.1943 41.6566 29.4458 42.6037 28.4002 42.7259C27.3545 42.8484 26.4075 42.0999 26.2852 41.0543L22.8803 11.9659C22.7579 10.9203 23.5064 9.97338 24.552 9.851Z" fill="#284E65"/>
<path fill-rule="evenodd" clip-rule="evenodd" d="M35.7956 12.2883C36.3024 12.5924 36.6394 13.1143 36.708 13.7012L37.9161 24.0205C38.0155 24.8705 37.5364 25.6827 36.7441 26.0065C34.8348 26.7873 33.2262 27.2987 31.5212 27.502C29.8135 27.7056 28.1225 27.5872 26.061 27.2547C25.0216 27.087 24.3149 26.1087 24.4825 25.0692C24.6501 24.0298 25.6284 23.3231 26.6679 23.4907C28.5516 23.7945 29.8529 23.8614 31.0696 23.7163C31.9549 23.6107 32.8554 23.3857 33.9574 22.9944L33.1982 16.5101C32.2123 16.8071 31.2691 17.0156 30.2979 17.1308C28.5986 17.3323 26.916 17.2362 24.8816 16.9397C23.8398 16.7879 23.1183 15.8203 23.2702 14.7785C23.422 13.7367 24.3896 13.0152 25.4314 13.1671C27.2868 13.4375 28.6054 13.4922 29.8488 13.3448C31.0945 13.1971 32.3674 12.8343 34.1196 12.1479C34.6696 11.9324 35.2888 11.9842 35.7956 12.2883Z" fill="#EC1E28"/>
<path fill-rule="evenodd" clip-rule="evenodd" d="M46.1362 14.814C46.672 15.2854 46.8997 16.0166 46.7261 16.7088L45.5443 21.422L47.7738 25.6803C48.0226 26.1558 48.0597 26.7142 47.8755 27.2185C47.6914 27.7225 47.3031 28.1259 46.8064 28.329C44.8969 29.1095 43.2885 29.6209 41.5836 29.8242C39.8758 30.0281 38.1849 29.9094 36.1233 29.5769C35.2818 29.4412 34.6324 28.7633 34.5335 27.9165L33.3254 17.5973C33.2566 17.0089 33.4652 16.4219 33.8899 16.0089C34.3149 15.5959 34.9074 15.4039 35.4937 15.4894C37.3489 15.7598 38.6678 15.8145 39.9112 15.6671C41.1568 15.5194 42.4297 15.1566 44.1817 14.4702C44.8463 14.2099 45.6004 14.3426 46.1362 14.814ZM37.3896 19.5248L38.1485 26.0089C39.3159 26.1375 40.2464 26.1441 41.1319 26.0387C41.8431 25.9538 42.5639 25.7919 43.3909 25.5288L41.8299 22.547C41.6128 22.1326 41.5559 21.6529 41.6697 21.1992L42.1903 19.1231C41.5795 19.2697 40.9753 19.3801 40.3603 19.4531C39.3876 19.5684 38.4205 19.5863 37.3896 19.5248Z" fill="#EC1E28"/>
<path fill-rule="evenodd" clip-rule="evenodd" d="M19.1328 52.4295C18.08 52.4295 17.2266 51.576 17.2266 50.5232C17.2266 49.1009 18.0656 48.0207 18.9995 47.3776C19.9416 46.7287 21.1387 46.3887 22.3688 46.3887C23.4216 46.3887 24.275 47.2422 24.275 48.2949C24.275 49.3477 23.4216 50.2012 22.3688 50.2012C21.8117 50.2012 21.3908 50.36 21.1617 50.5176C21.097 50.5623 21.0584 50.5972 21.0366 50.6205C20.986 51.6281 20.153 52.4295 19.1328 52.4295Z" fill="#284E65"/>
<path fill-rule="evenodd" clip-rule="evenodd" d="M37.3127 46.003C37.3127 46.003 37.3157 45.9962 37.3279 45.9835C37.3198 45.9969 37.3127 46.003 37.3127 46.003ZM37.7371 45.7336C38.082 45.5832 38.5843 45.4619 39.196 45.4619C39.8078 45.4619 40.3101 45.5832 40.655 45.7336C40.3101 45.8843 39.8078 46.0056 39.196 46.0056C38.5843 46.0056 38.082 45.8843 37.7371 45.7336ZM41.0794 46.003C41.0794 46.003 41.0726 45.9969 41.0642 45.9835C41.0764 45.9962 41.0794 46.003 41.0794 46.003ZM41.0642 45.484C41.0726 45.4706 41.0794 45.4645 41.0794 45.4645C41.0794 45.4645 41.0764 45.4713 41.0642 45.484ZM37.3279 45.484C37.3157 45.4713 37.3127 45.4645 37.3127 45.4645C37.3127 45.4645 37.3198 45.4706 37.3279 45.484ZM35.6026 42.5487C36.6162 41.9552 37.8909 41.6494 39.196 41.6494C40.5012 41.6494 41.7761 41.9552 42.7894 42.5487C43.7573 43.1154 44.8218 44.1766 44.8218 45.7336C44.8218 47.2909 43.7573 48.352 42.7894 48.9188C41.7761 49.5123 40.5012 49.8181 39.196 49.8181C37.8909 49.8181 36.6162 49.5123 35.6026 48.9188C34.6348 48.352 33.5703 47.2909 33.5703 45.7336C33.5703 44.1766 34.6348 43.1154 35.6026 42.5487Z" fill="#284E65"/>
<path fill-rule="evenodd" clip-rule="evenodd" d="M32.0625 51.4453C33.1153 51.4453 33.9688 52.2988 33.9688 53.3516V53.377C33.9688 54.4297 33.1153 55.2832 32.0625 55.2832C31.0095 55.2832 30.1562 54.4297 30.1562 53.377V53.3516C30.1562 52.2988 31.0095 51.4453 32.0625 51.4453Z" fill="#284E65"/>
<path fill-rule="evenodd" clip-rule="evenodd" d="M15.2109 22.7334C16.2637 22.7334 17.1172 23.5868 17.1172 24.6396V24.6651C17.1172 25.7177 16.2637 26.5712 15.2109 26.5712C14.1581 26.5712 13.3047 25.7177 13.3047 24.6651V24.6396C13.3047 23.5868 14.1581 22.7334 15.2109 22.7334Z" fill="#284E65"/>
<path fill-rule="evenodd" clip-rule="evenodd" d="M48.6953 5.7207C49.7481 5.7207 50.6016 6.57414 50.6016 7.62695V7.65237C50.6016 8.70515 49.7481 9.55862 48.6953 9.55862C47.6426 9.55862 46.7891 8.70515 46.7891 7.65237V7.62695C46.7891 6.57414 47.6426 5.7207 48.6953 5.7207Z" fill="#284E65"/>
</svg>
