<svg width="48" height="48" viewBox="0 0 48 48" fill="none" xmlns="http://www.w3.org/2000/svg">
<path fill-rule="evenodd" clip-rule="evenodd" d="M17.4837 17.4407C16.9193 17.4407 16.4615 17.8919 16.4615 18.4482V23.6356C16.4615 28.0121 20.061 31.5593 24.5 31.5593C28.9399 31.5593 32.5385 28.0121 32.5385 23.6356V18.4473C32.5385 17.8915 32.0812 17.4407 31.5164 17.4407H17.4837ZM15 18.4482C15 17.0963 16.1121 16 17.4837 16H31.5164C32.8874 16 34 17.0948 34 18.4473V23.6356C34 28.8078 29.747 33 24.5 33C19.2539 33 15 28.8078 15 23.6356V18.4482Z" fill="#284E65"/>
<path fill-rule="evenodd" clip-rule="evenodd" d="M20.2272 22.2155C20.5301 21.9282 21.0214 21.9282 21.3244 22.2153L24.5 25.2246L27.6756 22.2153C27.9787 21.9282 28.4699 21.9282 28.7729 22.2155C29.0758 22.5027 29.0758 22.9684 28.7726 23.2555L25.0485 26.7847C24.7456 27.0718 24.2544 27.0718 23.9514 26.7847L20.2273 23.2555C19.9243 22.9684 19.9242 22.5027 20.2272 22.2155Z" fill="#284E65"/>
</svg>
