<svg width="55" height="55" viewBox="0 0 55 55" fill="none" xmlns="http://www.w3.org/2000/svg">
<g clip-path="url(#clip0_154_3704)">
<path d="M27.5 55C42.6878 55 55 42.6878 55 27.5C55 12.3122 42.6878 0 27.5 0C12.3122 0 0 12.3122 0 27.5C0 42.6878 12.3122 55 27.5 55Z" fill="#2AA81A"/>
<path d="M36.8416 17.55C34.5532 15.2357 31.5129 13.8159 28.2695 13.5467C25.026 13.2776 21.7933 14.177 19.1548 16.0824C16.5163 17.9879 14.6461 20.7739 13.8816 23.9374C13.1172 27.101 13.509 30.4336 14.9863 33.3335L13.539 40.3605C13.5235 40.4307 13.5229 40.5033 13.5372 40.5738C13.5515 40.6442 13.5805 40.7108 13.6222 40.7694C13.6819 40.858 13.7673 40.9263 13.8668 40.9651C13.9664 41.0039 14.0755 41.0114 14.1794 40.9865L21.0544 39.3546C23.9464 40.7932 27.2551 41.1588 30.3915 40.3866C33.5279 39.6143 36.2884 37.7541 38.1819 35.1372C40.0753 32.5203 40.9787 29.3164 40.7313 26.0958C40.4839 22.8753 39.1017 19.847 36.8307 17.55H36.8416ZM34.6922 34.6904C33.1096 36.2702 31.0717 37.3143 28.8649 37.6758C26.6582 38.0373 24.3936 37.6981 22.3896 36.7059L21.4271 36.2283L17.2044 37.2269V37.1727L18.0945 32.9138L17.6242 31.9875C16.5995 29.9781 16.2377 27.6957 16.5907 25.4679C16.9437 23.2401 17.9933 21.1814 19.589 19.5871C21.5925 17.5857 24.3086 16.4615 27.1406 16.4615C29.9726 16.4615 32.6887 17.5857 34.6922 19.5871L34.7393 19.6523C36.7168 21.6601 37.8207 24.368 37.8105 27.1862C37.8004 30.0043 36.6769 32.7042 34.685 34.6977L34.6922 34.6904Z" fill="white"/>
<path d="M34.3195 31.5931C33.802 32.4073 32.9807 33.4023 31.9566 33.652C30.1474 34.0862 27.3938 33.652 23.9455 30.4642L23.902 30.4244C20.9024 27.6237 20.1063 25.2898 20.2836 23.4408C20.3886 22.3879 21.2642 21.4398 22.0024 20.8175C22.1197 20.7185 22.2586 20.6484 22.4079 20.6127C22.5572 20.577 22.7128 20.5767 22.8622 20.6119C23.0117 20.647 23.1508 20.7166 23.2685 20.8152C23.3862 20.9137 23.4793 21.0384 23.5402 21.1793L24.6511 23.6905C24.7236 23.8521 24.7508 24.0305 24.7297 24.2064C24.7087 24.3823 24.6402 24.5492 24.5316 24.6892L23.9672 25.4129C23.8498 25.5631 23.78 25.7449 23.7664 25.935C23.7529 26.1251 23.7963 26.315 23.8912 26.4803C24.4274 27.2706 25.0689 27.984 25.7981 28.6007C26.5826 29.3557 27.4723 29.9931 28.4395 30.4931C28.6161 30.5643 28.8098 30.5813 28.996 30.542C29.1822 30.5027 29.3525 30.4088 29.4853 30.2724L30.133 29.6139C30.2562 29.4813 30.4137 29.3855 30.5881 29.3369C30.7624 29.2884 30.9468 29.2891 31.1208 29.3389L33.7622 30.0951C33.9119 30.1377 34.0495 30.2149 34.1638 30.3205C34.278 30.4261 34.3659 30.5572 34.4201 30.703C34.4744 30.8489 34.4935 31.0055 34.4761 31.1601C34.4586 31.3147 34.4049 31.4631 34.3195 31.5931Z" fill="white"/>
</g>
<defs>
<clipPath id="clip0_154_3704">
<rect width="55" height="55" fill="white"/>
</clipPath>
</defs>
</svg>
