<svg width="48" height="48" viewBox="0 0 48 48" fill="none" xmlns="http://www.w3.org/2000/svg">
<rect width="48" height="48" rx="24" fill="#DEF2FF"/>
<path fill-rule="evenodd" clip-rule="evenodd" d="M24.8066 28.076C20.2474 28.0866 15.879 29.5921 13.4749 32.3511C13.0894 32.7935 12.4182 32.8397 11.9758 32.4541C11.5334 32.0686 11.4873 31.3975 11.8728 30.9551C14.821 27.5718 19.8848 25.9625 24.8017 25.951C29.7212 25.9397 34.8253 27.5267 37.8609 30.9479C38.2504 31.3867 38.2103 32.0584 37.7714 32.4478C37.3324 32.8373 36.6609 32.7972 36.2714 32.3583C33.7791 29.5495 29.3632 28.0655 24.8066 28.076Z" fill="#284E65"/>
<path fill-rule="evenodd" clip-rule="evenodd" d="M20.6847 12.4907C21.2675 12.4225 21.7953 12.8396 21.8635 13.4225L23.7613 29.6356C23.8296 30.2184 23.4124 30.7463 22.8296 30.8144C22.2467 30.8827 21.7189 30.4655 21.6508 29.8827L19.7529 13.6695C19.6847 13.0867 20.1019 12.5589 20.6847 12.4907Z" fill="#284E65"/>
<path fill-rule="evenodd" clip-rule="evenodd" d="M26.9516 13.8492C27.2341 14.0187 27.4219 14.3096 27.4602 14.6367L28.1335 20.3884C28.1889 20.8622 27.9219 21.3149 27.4803 21.4954C26.4161 21.9306 25.5195 22.2156 24.5692 22.329C23.6173 22.4424 22.6748 22.3764 21.5258 22.1911C20.9464 22.0976 20.5525 21.5523 20.6459 20.973C20.7393 20.3936 21.2846 19.9997 21.8641 20.0932C22.914 20.2625 23.6393 20.2998 24.3174 20.2189C24.8109 20.16 25.3128 20.0346 25.9271 19.8165L25.5039 16.2023C24.9544 16.3679 24.4287 16.4841 23.8873 16.5483C22.9402 16.6606 22.0023 16.6071 20.8684 16.4418C20.2877 16.3572 19.8856 15.8178 19.9702 15.2372C20.0548 14.6565 20.5942 14.2544 21.1749 14.339C22.209 14.4897 22.944 14.5202 23.637 14.438C24.3313 14.3557 25.0408 14.1535 26.0174 13.7709C26.324 13.6508 26.6691 13.6797 26.9516 13.8492Z" fill="#EC1E28"/>
<path fill-rule="evenodd" clip-rule="evenodd" d="M32.715 15.257C33.0137 15.5198 33.1406 15.9273 33.0438 16.3131L32.3851 18.9402L33.6278 21.3136C33.7665 21.5787 33.7872 21.8899 33.6844 22.171C33.5819 22.4519 33.3654 22.6768 33.0886 22.7899C32.0243 23.225 31.1278 23.51 30.1775 23.6234C29.2256 23.737 28.2831 23.6708 27.1341 23.4855C26.665 23.4099 26.303 23.0321 26.2479 22.56L25.5746 16.8084C25.5362 16.4804 25.6525 16.1532 25.8892 15.923C26.1261 15.6928 26.4563 15.5858 26.7832 15.6335C27.8172 15.7842 28.5523 15.8147 29.2453 15.7325C29.9396 15.6502 30.6491 15.448 31.6256 15.0654C31.9961 14.9203 32.4164 14.9943 32.715 15.257ZM27.8398 17.8827L28.2629 21.4968C28.9135 21.5685 29.4322 21.5722 29.9257 21.5134C30.3221 21.4661 30.7239 21.3758 31.1849 21.2292L30.3148 19.5672C30.1938 19.3363 30.162 19.0689 30.2255 18.816L30.5156 17.6588C30.1752 17.7405 29.8385 17.802 29.4956 17.8427C28.9535 17.907 28.4144 17.917 27.8398 17.8827Z" fill="#EC1E28"/>
<path fill-rule="evenodd" clip-rule="evenodd" d="M17.6641 36.2229C17.0773 36.2229 16.6016 35.7472 16.6016 35.1604C16.6016 34.3677 17.0692 33.7656 17.5897 33.4072C18.1149 33.0455 18.7821 32.856 19.4677 32.856C20.0545 32.856 20.5302 33.3317 20.5302 33.9185C20.5302 34.5052 20.0545 34.981 19.4677 34.981C19.1572 34.981 18.9226 35.0695 18.7949 35.1573C18.7588 35.1823 18.7374 35.2017 18.7252 35.2147C18.697 35.7763 18.2327 36.2229 17.6641 36.2229Z" fill="#284E65"/>
<path fill-rule="evenodd" clip-rule="evenodd" d="M27.7973 32.641C27.7973 32.641 27.799 32.6371 27.8058 32.6301C27.8013 32.6376 27.7973 32.641 27.7973 32.641ZM28.0339 32.4908C28.2262 32.4069 28.5061 32.3394 28.8471 32.3394C29.1881 32.3394 29.468 32.4069 29.6602 32.4908C29.468 32.5748 29.1881 32.6424 28.8471 32.6424C28.5061 32.6424 28.2262 32.5748 28.0339 32.4908ZM29.8968 32.641C29.8968 32.641 29.893 32.6376 29.8883 32.6301C29.8951 32.6371 29.8968 32.641 29.8968 32.641ZM29.8883 32.3517C29.893 32.3442 29.8968 32.3408 29.8968 32.3408C29.8968 32.3408 29.8951 32.3446 29.8883 32.3517ZM27.8058 32.3517C27.799 32.3446 27.7973 32.3408 27.7973 32.3408C27.7973 32.3408 27.8013 32.3442 27.8058 32.3517ZM26.8442 30.7156C27.4092 30.3848 28.1196 30.2144 28.8471 30.2144C29.5745 30.2144 30.2851 30.3848 30.85 30.7156C31.3894 31.0315 31.9827 31.6229 31.9827 32.4908C31.9827 33.3588 31.3894 33.9502 30.85 34.2662C30.2851 34.597 29.5745 34.7674 28.8471 34.7674C28.1196 34.7674 27.4092 34.597 26.8442 34.2662C26.3047 33.9502 25.7114 33.3588 25.7114 32.4908C25.7114 31.6229 26.3047 31.0315 26.8442 30.7156Z" fill="#284E65"/>
<path fill-rule="evenodd" clip-rule="evenodd" d="M24.8711 35.6743C25.4579 35.6743 25.9336 36.15 25.9336 36.7368V36.751C25.9336 37.3378 25.4579 37.8135 24.8711 37.8135C24.2842 37.8135 23.8086 37.3378 23.8086 36.751V36.7368C23.8086 36.15 24.2842 35.6743 24.8711 35.6743Z" fill="#284E65"/>
<path fill-rule="evenodd" clip-rule="evenodd" d="M15.478 19.6711C16.0648 19.6711 16.5405 20.1468 16.5405 20.7336V20.7478C16.5405 21.3345 16.0648 21.8103 15.478 21.8103C14.8912 21.8103 14.4155 21.3345 14.4155 20.7478V20.7336C14.4155 20.1468 14.8912 19.6711 15.478 19.6711Z" fill="#284E65"/>
<path fill-rule="evenodd" clip-rule="evenodd" d="M34.1416 10.1885C34.7284 10.1885 35.2041 10.6642 35.2041 11.251V11.2651C35.2041 11.8519 34.7284 12.3276 34.1416 12.3276C33.5548 12.3276 33.0791 11.8519 33.0791 11.2651V11.251C33.0791 10.6642 33.5548 10.1885 34.1416 10.1885Z" fill="#284E65"/>
</svg>
