<svg width="90" height="90" viewBox="0 0 90 90" fill="none" xmlns="http://www.w3.org/2000/svg">
<rect width="90" height="90" rx="45" fill="#DEF2FF"/>
<path fill-rule="evenodd" clip-rule="evenodd" d="M46.4474 52.3126C38.2675 52.3317 30.4301 55.0327 26.1169 59.9826C25.4252 60.7764 24.2211 60.8592 23.4274 60.1674C22.6337 59.4758 22.5509 58.2718 23.2426 57.478C28.5319 51.408 37.6169 48.5207 46.4385 48.5001C55.2647 48.4798 64.4221 51.3272 69.8683 57.4651C70.567 58.2525 70.4951 59.4575 69.7077 60.1562C68.92 60.8549 67.7153 60.783 67.0166 59.9956C62.545 54.9562 54.6224 52.2938 46.4474 52.3126Z" fill="#284E65"/>
<path fill-rule="evenodd" clip-rule="evenodd" d="M39.052 24.351C40.0977 24.2286 41.0445 24.977 41.167 26.0227L44.5718 55.111C44.6943 56.1566 43.9458 57.1037 42.9002 57.2259C41.8545 57.3484 40.9075 56.5999 40.7852 55.5543L37.3803 26.4659C37.2579 25.4203 38.0064 24.4734 39.052 24.351Z" fill="#284E65"/>
<path fill-rule="evenodd" clip-rule="evenodd" d="M50.2956 26.7883C50.8024 27.0924 51.1394 27.6143 51.208 28.2012L52.4161 38.5205C52.5155 39.3705 52.0364 40.1827 51.2441 40.5065C49.3348 41.2873 47.7262 41.7987 46.0212 42.002C44.3135 42.2056 42.6225 42.0872 40.561 41.7547C39.5216 41.587 38.8149 40.6087 38.9825 39.5692C39.1501 38.5298 40.1284 37.8231 41.1679 37.9907C43.0516 38.2945 44.3529 38.3614 45.5696 38.2163C46.4549 38.1107 47.3554 37.8857 48.4574 37.4944L47.6982 31.0101C46.7123 31.3071 45.7691 31.5156 44.7979 31.6308C43.0986 31.8323 41.416 31.7362 39.3816 31.4397C38.3398 31.2879 37.6183 30.3203 37.7702 29.2785C37.922 28.2367 38.8896 27.5152 39.9314 27.6671C41.7868 27.9375 43.1054 27.9922 44.3488 27.8448C45.5945 27.6971 46.8674 27.3343 48.6196 26.6479C49.1696 26.4324 49.7888 26.4842 50.2956 26.7883Z" fill="#EC1E28"/>
<path fill-rule="evenodd" clip-rule="evenodd" d="M60.6362 29.314C61.172 29.7854 61.3997 30.5166 61.2261 31.2088L60.0443 35.922L62.2738 40.1803C62.5226 40.6558 62.5597 41.2142 62.3755 41.7185C62.1914 42.2225 61.8031 42.6259 61.3064 42.829C59.3969 43.6095 57.7885 44.1209 56.0836 44.3242C54.3758 44.5281 52.6849 44.4094 50.6233 44.0769C49.7818 43.9412 49.1324 43.2633 49.0335 42.4165L47.8254 32.0973C47.7566 31.5089 47.9652 30.9219 48.3899 30.5089C48.8149 30.0959 49.4074 29.9039 49.9937 29.9894C51.8489 30.2598 53.1678 30.3145 54.4112 30.1671C55.6568 30.0194 56.9297 29.6566 58.6817 28.9702C59.3463 28.7099 60.1004 28.8426 60.6362 29.314ZM51.8896 34.0248L52.6485 40.5089C53.8159 40.6375 54.7464 40.6441 55.6319 40.5387C56.3431 40.4538 57.0639 40.2919 57.8909 40.0288L56.3299 37.047C56.1128 36.6326 56.0559 36.1529 56.1697 35.6992L56.6903 33.6231C56.0795 33.7697 55.4753 33.8801 54.8603 33.9531C53.8876 34.0684 52.9205 34.0863 51.8896 34.0248Z" fill="#EC1E28"/>
<path fill-rule="evenodd" clip-rule="evenodd" d="M33.6328 66.9295C32.58 66.9295 31.7266 66.076 31.7266 65.0232C31.7266 63.6009 32.5656 62.5207 33.4995 61.8776C34.4416 61.2287 35.6387 60.8887 36.8688 60.8887C37.9216 60.8887 38.775 61.7422 38.775 62.7949C38.775 63.8477 37.9216 64.7012 36.8688 64.7012C36.3117 64.7012 35.8908 64.86 35.6617 65.0176C35.597 65.0623 35.5584 65.0972 35.5366 65.1205C35.486 66.1281 34.653 66.9295 33.6328 66.9295Z" fill="#284E65"/>
<path fill-rule="evenodd" clip-rule="evenodd" d="M51.8127 60.503C51.8127 60.503 51.8157 60.4962 51.8279 60.4835C51.8198 60.4969 51.8127 60.503 51.8127 60.503ZM52.2371 60.2336C52.582 60.0832 53.0843 59.9619 53.696 59.9619C54.3078 59.9619 54.8101 60.0832 55.155 60.2336C54.8101 60.3843 54.3078 60.5056 53.696 60.5056C53.0843 60.5056 52.582 60.3843 52.2371 60.2336ZM55.5794 60.503C55.5794 60.503 55.5726 60.4969 55.5642 60.4835C55.5764 60.4962 55.5794 60.503 55.5794 60.503ZM55.5642 59.984C55.5726 59.9706 55.5794 59.9645 55.5794 59.9645C55.5794 59.9645 55.5764 59.9713 55.5642 59.984ZM51.8279 59.984C51.8157 59.9713 51.8127 59.9645 51.8127 59.9645C51.8127 59.9645 51.8198 59.9706 51.8279 59.984ZM50.1026 57.0487C51.1162 56.4552 52.3909 56.1494 53.696 56.1494C55.0012 56.1494 56.2761 56.4552 57.2894 57.0487C58.2573 57.6154 59.3218 58.6766 59.3218 60.2336C59.3218 61.7909 58.2573 62.852 57.2894 63.4188C56.2761 64.0123 55.0012 64.3181 53.696 64.3181C52.3909 64.3181 51.1162 64.0123 50.1026 63.4188C49.1348 62.852 48.0703 61.7909 48.0703 60.2336C48.0703 58.6766 49.1348 57.6154 50.1026 57.0487Z" fill="#284E65"/>
<path fill-rule="evenodd" clip-rule="evenodd" d="M46.5625 65.9453C47.6153 65.9453 48.4688 66.7988 48.4688 67.8516V67.877C48.4688 68.9297 47.6153 69.7832 46.5625 69.7832C45.5095 69.7832 44.6562 68.9297 44.6562 67.877V67.8516C44.6562 66.7988 45.5095 65.9453 46.5625 65.9453Z" fill="#284E65"/>
<path fill-rule="evenodd" clip-rule="evenodd" d="M29.7109 37.2334C30.7637 37.2334 31.6172 38.0868 31.6172 39.1396V39.1651C31.6172 40.2177 30.7637 41.0712 29.7109 41.0712C28.6581 41.0712 27.8047 40.2177 27.8047 39.1651V39.1396C27.8047 38.0868 28.6581 37.2334 29.7109 37.2334Z" fill="#284E65"/>
<path fill-rule="evenodd" clip-rule="evenodd" d="M63.1953 20.2207C64.2481 20.2207 65.1016 21.0741 65.1016 22.127V22.1524C65.1016 23.2052 64.2481 24.0586 63.1953 24.0586C62.1426 24.0586 61.2891 23.2052 61.2891 22.1524V22.127C61.2891 21.0741 62.1426 20.2207 63.1953 20.2207Z" fill="#284E65"/>
</svg>
