<svg width="52" height="52" viewBox="0 0 52 52" fill="none" xmlns="http://www.w3.org/2000/svg">
<g clip-path="url(#clip0_154_3692)">
<path d="M26 52C40.3594 52 52 40.3594 52 26C52 11.6406 40.3594 0 26 0C11.6406 0 0 11.6406 0 26C0 40.3594 11.6406 52 26 52Z" fill="#284E65"/>
<path d="M35.1719 16.8281C33.0084 14.6401 30.1339 13.2977 27.0674 13.0432C24.0009 12.7888 20.9444 13.6391 18.4499 15.4406C15.9553 17.2421 14.1871 19.8762 13.4643 22.8671C12.7416 25.8581 13.112 29.0089 14.5088 31.7507L13.1403 38.3944C13.1257 38.4608 13.1251 38.5295 13.1387 38.596C13.1522 38.6626 13.1796 38.7256 13.219 38.781C13.2755 38.8648 13.3562 38.9293 13.4503 38.966C13.5445 39.0027 13.6476 39.0098 13.7459 38.9862L20.2459 37.4434C22.9802 38.8035 26.1083 39.1492 29.0736 38.419C32.0389 37.6889 34.649 35.9302 36.4391 33.456C38.2292 30.9818 39.0834 27.9527 38.8494 24.9078C38.6155 21.8629 37.3087 18.9998 35.1617 16.8281H35.1719ZM33.1398 33.0336C31.6435 34.5273 29.7167 35.5144 27.6303 35.8562C25.544 36.198 23.4029 35.8773 21.5082 34.9391L20.5982 34.4876L16.6059 35.4318V35.3805L17.4475 31.3539L17.0027 30.4781C16.0339 28.5783 15.6919 26.4204 16.0256 24.3141C16.3594 22.2078 17.3517 20.2614 18.8603 18.7541C20.7546 16.8619 23.3226 15.7989 26.0001 15.7989C28.6776 15.7989 31.2456 16.8619 33.1398 18.7541L33.1843 18.8157C35.0539 20.714 36.0976 23.2743 36.088 25.9387C36.0784 28.6031 35.0163 31.1557 33.133 33.0405L33.1398 33.0336Z" fill="#284E65"/>
<path d="M32.7875 30.1053C32.2983 30.875 31.5217 31.8158 30.5535 32.0519C28.843 32.4624 26.2396 32.0518 22.9793 29.0379L22.9383 29.0003C20.1022 26.3524 19.3496 24.1458 19.5172 22.3976C19.6164 21.4021 20.4443 20.5058 21.1422 19.9174C21.2532 19.8238 21.3845 19.7575 21.5256 19.7238C21.6668 19.69 21.8139 19.6897 21.9552 19.723C22.0965 19.7562 22.228 19.822 22.3393 19.9152C22.4506 20.0084 22.5386 20.1263 22.5962 20.2595L23.6464 22.6337C23.715 22.7865 23.7407 22.9551 23.7208 23.1214C23.7009 23.2878 23.6362 23.4455 23.5335 23.5779L22.9998 24.2621C22.8889 24.4041 22.8228 24.576 22.81 24.7558C22.7972 24.9355 22.8383 25.115 22.928 25.2713C23.4349 26.0185 24.0415 26.693 24.7309 27.2761C25.4726 27.9899 26.3138 28.5925 27.2283 29.0653C27.3952 29.1325 27.5783 29.1486 27.7544 29.1114C27.9304 29.0743 28.0915 28.9856 28.2169 28.8566L28.8293 28.234C28.9458 28.1087 29.0948 28.018 29.2596 27.9722C29.4244 27.9263 29.5988 27.9269 29.7633 27.974L32.2606 28.689C32.4021 28.7292 32.5322 28.8022 32.6402 28.9021C32.7483 29.0019 32.8313 29.1258 32.8826 29.2637C32.9339 29.4016 32.952 29.5497 32.9355 29.6959C32.919 29.8421 32.8683 29.9823 32.7875 30.1053Z" fill="#284E65"/>
<path d="M39 30.2017C39 33.9569 36.4378 37.0092 32.6365 37H20.3635C16.5622 37.0092 14 33.9569 14 30.2017V21.8074C14 18.0562 16.5622 15 20.3635 15H32.6365C36.4378 15 39 18.0562 39 21.8074V30.2017Z" stroke="white" stroke-width="3" stroke-linecap="round" stroke-linejoin="round"/>
<path d="M38 19L29.3274 26.0299C27.6942 27.3234 25.3796 27.3234 23.7463 26.0299L15 19" stroke="white" stroke-width="2" stroke-linecap="round" stroke-linejoin="round"/>
<path d="M22.0824 25L15 32.9989M38 33L30.9956 25.0011" stroke="white" stroke-width="2" stroke-linecap="round" stroke-linejoin="round"/>
</g>
<defs>
<clipPath id="clip0_154_3692">
<rect width="52" height="52" fill="white"/>
</clipPath>
</defs>
</svg>
