<svg width="48" height="48" viewBox="0 0 48 48" fill="none" xmlns="http://www.w3.org/2000/svg">
<rect x="0.5" y="0.5" width="47" height="47" rx="23.5" stroke="#284E65"/>
<path d="M27.32 29H19.944V27.976L23.72 23.8C24.7973 22.5627 25.336 21.56 25.336 20.792C25.336 20.1307 25.16 19.6133 24.808 19.24C24.456 18.8667 23.96 18.68 23.32 18.68C22.7547 18.68 22.264 18.872 21.848 19.256C21.4427 19.64 21.2293 20.2533 21.208 21.096H19.688C19.6987 20.52 19.832 19.96 20.088 19.416C20.344 18.8613 20.744 18.4027 21.288 18.04C21.832 17.6773 22.5093 17.496 23.32 17.496C24.44 17.496 25.3093 17.7733 25.928 18.328C26.5573 18.872 26.872 19.6507 26.872 20.664C26.872 21.1973 26.7067 21.752 26.376 22.328C26.056 22.904 25.5227 23.6293 24.776 24.504L21.944 27.816H27.32V29Z" fill="#284E65"/>
</svg>
