<svg width="49" height="49" viewBox="0 0 49 49" fill="none" xmlns="http://www.w3.org/2000/svg">
<rect x="0.5" y="0.5" width="48" height="48" rx="24" stroke="#284E65"/>
<path fill-rule="evenodd" clip-rule="evenodd" d="M24.5721 29.4701L22.1759 31.6967C21.8826 31.9702 21.4053 31.7456 21.4323 31.3452C21.5072 30.2137 21.6237 28.4946 21.7017 27.5388C21.7142 27.388 21.841 27.2195 21.9617 27.1103C24.7603 24.5727 27.5652 22.0414 30.3691 19.5079C30.4731 19.4143 30.5958 19.1835 30.5313 19.0618C30.4585 18.9245 30.1226 18.9661 29.9832 19.0535C26.4223 21.2957 22.8613 23.5369 19.3055 25.7864C19.0871 25.9237 18.8198 25.957 18.5744 25.8779C17.108 25.4068 15.6333 24.9606 14.1638 24.4968C13.8258 24.3897 13.4243 24.2836 13.3858 23.8645C13.3453 23.4266 13.7207 23.2186 14.0598 23.0824C15.4263 22.5312 16.8022 22.0039 18.1761 21.4735C23.1182 19.5693 28.0603 17.6661 33.0023 15.7629C33.1677 15.6995 33.3882 15.6599 33.5608 15.6256C34.0787 15.5216 34.5447 15.7816 34.5956 16.3058C34.6341 16.6895 34.5665 17.117 34.4864 17.4966C33.4568 22.3939 32.4137 27.2892 31.3716 32.1855C31.0908 33.5084 30.4107 33.759 29.3155 32.951C27.9043 31.9089 24.5721 29.4701 24.5721 29.4701Z" fill="#284E65"/>
</svg>
