<svg width="49" height="49" viewBox="0 0 49 49" fill="none" xmlns="http://www.w3.org/2000/svg">
<rect x="0.5" y="0.5" width="48" height="48" rx="24" stroke="#284E65"/>
<path fill-rule="evenodd" clip-rule="evenodd" d="M26.7191 26.739L26.6075 26.662C26.3811 26.5039 26.068 26.5245 25.8806 26.7108L25.6293 26.9643C25.3671 27.2308 24.9544 27.2817 24.6326 27.0889C23.3846 26.337 22.7617 25.6112 21.9828 24.4531C21.7694 24.1346 21.8073 23.7089 22.0749 23.4337L22.3273 23.1737C22.5255 22.9711 22.5494 22.6689 22.3879 22.4338C22.2157 22.1933 22.0478 21.9517 21.8874 21.7209C21.7943 21.5888 21.6415 21.5021 21.4736 21.488C21.4595 21.4869 21.4433 21.4858 21.4249 21.4858C21.323 21.4858 21.167 21.514 21.0327 21.6494L20.8973 21.7859L20.894 21.7892C19.7435 22.943 20.9861 25.0078 22.5331 26.5559C24.0606 28.078 26.1059 29.3 27.2564 28.1473L27.4157 27.9978C27.5554 27.8559 27.5652 27.6663 27.5565 27.5688C27.5479 27.4702 27.5056 27.2871 27.3204 27.1582C27.121 27.0152 26.9249 26.8809 26.7191 26.739Z" fill="#284E65"/>
<path fill-rule="evenodd" clip-rule="evenodd" d="M28.5451 29.1662L28.3848 29.3179C27.7565 29.943 26.997 30.2517 26.151 30.2517C24.734 30.2517 23.0743 29.3894 21.3854 27.7059C18.703 25.0236 18.0736 22.3174 19.7409 20.6436L19.8785 20.5049C20.3389 20.0434 20.9802 19.8094 21.6129 19.869C22.2607 19.9254 22.8457 20.2612 23.2195 20.792C23.3776 21.0206 23.5423 21.2557 23.7178 21.5005C24.2638 22.2914 24.2389 23.3217 23.695 24.0681C24.084 24.5978 24.4458 24.9889 24.9615 25.3627C25.7111 24.8026 26.7457 24.7787 27.5333 25.3269L27.6405 25.3995C27.8561 25.549 28.062 25.6898 28.2591 25.8328C28.7802 26.1947 29.1171 26.7775 29.1756 27.4232C29.2341 28.071 29.0034 28.7058 28.5451 29.1662ZM34.1091 23.0877C33.3378 18.985 30.0618 15.7101 25.9592 14.9409C22.9118 14.3679 19.8124 15.1674 17.4485 17.1282C15.0717 19.0999 13.71 21.9869 13.71 25.0507C13.71 26.5912 14.061 28.1219 14.7521 29.5963C14.8085 29.7242 14.8258 29.8531 14.7998 29.9722C14.6308 30.7403 14.2765 32.2862 14.0209 33.3912C13.9136 33.8582 14.0545 34.3348 14.3946 34.6652C14.7315 34.9924 15.2082 35.1213 15.6632 35.0011C16.6935 34.7411 18.105 34.3955 18.9912 34.1886C19.1071 34.1615 19.235 34.1777 19.3682 34.2438C20.7971 34.9632 22.3994 35.3423 24.0016 35.3423C27.0631 35.3423 29.9491 33.9806 31.9186 31.607C33.8827 29.2421 34.68 26.1362 34.1091 23.0877Z" fill="#284E65"/>
</svg>
