<svg width="48" height="48" viewBox="0 0 48 48" fill="none" xmlns="http://www.w3.org/2000/svg">
<g clip-path="url(#clip0_159_3905)">
<path d="M24 48C37.2548 48 48 37.2548 48 24C48 10.7452 37.2548 0 24 0C10.7452 0 0 10.7452 0 24C0 37.2548 10.7452 48 24 48Z" fill="#2AA81A"/>
<path d="M32.1739 15.2937C30.1716 13.2688 27.5113 12.0264 24.6733 11.7909C21.8353 11.5554 19.0066 12.3424 16.6979 14.0096C14.3893 15.6769 12.7528 18.1147 12.0839 20.8827C11.4151 23.6508 11.7579 26.5669 13.0505 29.1043L11.7841 35.2529C11.7705 35.3144 11.77 35.3779 11.7825 35.4396C11.7951 35.5012 11.8204 35.5595 11.8569 35.6107C11.9092 35.6883 11.9838 35.748 12.071 35.782C12.1581 35.8159 12.2535 35.8224 12.3445 35.8007L18.3601 34.3728C20.8906 35.6315 23.7857 35.9515 26.5301 35.2757C29.2744 34.6 31.6899 32.9724 33.3466 30.6826C35.0034 28.3927 35.7939 25.5894 35.5774 22.7714C35.3609 19.9534 34.1515 17.3036 32.1644 15.2937H32.1739ZM30.2932 30.2916C28.9084 31.674 27.1252 32.5875 25.1943 32.9039C23.2634 33.2202 21.2819 32.9234 19.5284 32.0552L18.6862 31.6372L14.9914 32.5111V32.4636L15.7702 28.7371L15.3586 27.9265C14.4621 26.1683 14.1455 24.1712 14.4544 22.2219C14.7632 20.2726 15.6816 18.4712 17.0778 17.0763C18.8309 15.325 21.2076 14.3413 23.6855 14.3413C26.1635 14.3413 28.5401 15.325 30.2932 17.0763L30.3344 17.1332C32.0647 18.8901 33.0306 21.2595 33.0217 23.7254C33.0128 26.1912 32.0298 28.5537 30.2869 30.298L30.2932 30.2916Z" fill="white"/>
<path d="M29.9673 27.5815C29.5146 28.2938 28.7959 29.1645 27.8999 29.383C26.3168 29.7629 23.9074 29.383 20.8901 26.5936L20.8521 26.5588C18.2274 24.1082 17.5308 22.0661 17.686 20.4482C17.7778 19.5269 18.544 18.6973 19.1899 18.1528C19.2926 18.0662 19.4141 18.0048 19.5447 17.9736C19.6754 17.9423 19.8115 17.9421 19.9423 17.9728C20.073 18.0036 20.1948 18.0645 20.2978 18.1507C20.4008 18.237 20.4822 18.3461 20.5355 18.4694L21.5075 20.6667C21.5709 20.8081 21.5947 20.9641 21.5763 21.1181C21.5579 21.272 21.498 21.418 21.403 21.5405L20.9091 22.1737C20.8064 22.3052 20.7453 22.4642 20.7334 22.6306C20.7216 22.797 20.7596 22.9631 20.8426 23.1077C21.3118 23.7992 21.8731 24.4234 22.5111 24.9631C23.1976 25.6237 23.9761 26.1815 24.8224 26.619C24.9769 26.6812 25.1464 26.6961 25.3093 26.6617C25.4723 26.6273 25.6213 26.5452 25.7374 26.4258L26.3041 25.8496C26.412 25.7336 26.5498 25.6498 26.7024 25.6073C26.8549 25.5648 27.0163 25.5654 27.1685 25.609L29.4798 26.2707C29.6107 26.308 29.7311 26.3755 29.8311 26.4679C29.9311 26.5603 30.0079 26.675 30.0554 26.8026C30.1029 26.9302 30.1197 27.0673 30.1044 27.2026C30.0891 27.3379 30.0421 27.4677 29.9673 27.5815Z" fill="white"/>
</g>
<defs>
<clipPath id="clip0_159_3905">
<rect width="48" height="48" fill="white"/>
</clipPath>
</defs>
</svg>
