<svg width="58" height="61" viewBox="0 0 58 61" fill="none" xmlns="http://www.w3.org/2000/svg">
<path fill-rule="evenodd" clip-rule="evenodd" d="M29.1954 8.125C41.8297 8.125 52.0704 18.3656 52.0704 31C52.0704 43.6344 41.8297 53.875 29.1954 53.875C16.5609 53.875 6.32031 43.6344 6.32031 31C6.32031 18.3656 16.5609 8.125 29.1954 8.125Z" stroke="#284E65" stroke-width="3" stroke-linecap="round" stroke-linejoin="round"/>
<path fill-rule="evenodd" clip-rule="evenodd" d="M29.194 8.125C33.8976 8.125 37.7086 18.3656 37.7086 31C37.7086 43.6344 33.8976 53.875 29.194 53.875C24.4904 53.875 20.6797 43.6344 20.6797 31C20.6797 18.3656 24.4904 8.125 29.194 8.125Z" stroke="#EC1E28" stroke-width="3" stroke-linecap="round" stroke-linejoin="round"/>
<path d="M8.89844 20.4355C12.7538 21.625 16.943 22.4337 21.2509 22.8863C26.4862 23.4353 31.8898 23.4353 37.1497 22.8863C41.4576 22.4337 45.6468 21.625 49.5022 20.4355" stroke="#284E65" stroke-width="3" stroke-linecap="round" stroke-linejoin="round"/>
<path d="M49.5022 41.557C45.6468 40.3675 41.4576 39.5588 37.1497 39.1061C31.8898 38.5571 26.4862 38.5571 21.2509 39.1061C16.943 39.5588 12.7538 40.3675 8.89844 41.557" stroke="#284E65" stroke-width="3" stroke-linecap="round" stroke-linejoin="round"/>
</svg>
