<svg width="49" height="49" viewBox="0 0 49 49" fill="none" xmlns="http://www.w3.org/2000/svg">
<rect x="0.5" y="0.5" width="48" height="48" rx="24" stroke="#284E65"/>
<path fill-rule="evenodd" clip-rule="evenodd" d="M33.8039 17.3923C33.6937 17.2196 33.494 17.1229 33.2881 17.1572L31.2049 17.4671C30.6173 16.8099 28.8181 15.1334 26.3357 15.8843C24.186 16.5436 23.1626 18.8295 23.1013 20.5747C20.4357 20.0859 17.948 18.7734 16.0428 16.839C15.9065 16.7007 15.7037 16.6497 15.5165 16.7079C15.3293 16.7662 15.192 16.9243 15.1598 17.1167C14.2082 22.7774 15.4375 26.5557 19.0255 28.9269C17.6932 29.6611 16.1655 30.0386 14.6616 29.9846C14.4557 29.9835 14.2675 30.0927 14.178 30.2768C14.0876 30.4598 14.1146 30.6793 14.2456 30.8374C15.7869 32.6906 18.6906 33.3261 21.0046 33.3261C21.2719 33.3261 21.5308 33.3178 21.7794 33.3022C25.149 33.0921 27.9269 31.7006 29.8124 29.2763C31.5981 26.981 32.4623 23.8267 32.2449 20.3687L32.2387 20.3178L33.7987 17.958C33.9121 17.7875 33.9141 17.5649 33.8039 17.3923Z" fill="#284E65"/>
</svg>
